G75*
%MOIN*%
%OFA0B0*%
%FSLAX24Y24*%
%IPPOS*%
%LPD*%
%AMOC8*
5,1,8,0,0,1.08239X$1,22.5*
%
%ADD10C,0.0000*%
%ADD11C,0.0040*%
%ADD12C,0.0030*%
%ADD13C,0.0060*%
%ADD14C,0.0050*%
%ADD15R,0.0157X0.2402*%
%ADD16R,0.0157X0.1417*%
%ADD17R,0.0157X0.1220*%
%ADD18C,0.0020*%
%ADD19R,0.0450X0.0200*%
%ADD20R,0.0200X0.0200*%
%ADD21C,0.0200*%
%ADD22R,0.0230X0.0180*%
%ADD23C,0.0059*%
D10*
X000480Y004962D02*
X000480Y017432D01*
X013272Y017432D01*
X013272Y004962D01*
X000480Y004962D01*
D11*
X000920Y009082D02*
X001040Y009202D01*
X001040Y009442D01*
X001168Y009382D02*
X001168Y009142D01*
X001228Y009082D01*
X001348Y009082D01*
X001409Y009142D01*
X001409Y009262D01*
X001288Y009262D01*
X001168Y009382D02*
X001228Y009442D01*
X001348Y009442D01*
X001409Y009382D01*
X001537Y009322D02*
X001657Y009442D01*
X001777Y009322D01*
X001777Y009082D01*
X001777Y009262D02*
X001537Y009262D01*
X001537Y009322D02*
X001537Y009082D01*
X000920Y009082D02*
X000800Y009202D01*
X000800Y009442D01*
X003840Y013282D02*
X003840Y013629D01*
X003926Y013629D01*
X004273Y013282D01*
X004360Y013282D01*
X004850Y013242D02*
X004970Y013242D01*
X004910Y013242D02*
X004910Y012882D01*
X004850Y012882D02*
X004970Y012882D01*
X005096Y012942D02*
X005096Y013182D01*
X005156Y013242D01*
X005276Y013242D01*
X005336Y013182D01*
X005464Y013122D02*
X005584Y013242D01*
X005584Y012882D01*
X005464Y012882D02*
X005704Y012882D01*
X005336Y012942D02*
X005276Y012882D01*
X005156Y012882D01*
X005096Y012942D01*
X003402Y014362D02*
X003162Y014362D01*
X003162Y014722D01*
X003402Y014722D01*
X003282Y014542D02*
X003162Y014542D01*
X003036Y014362D02*
X002916Y014362D01*
X002976Y014362D02*
X002976Y014722D01*
X002916Y014722D02*
X003036Y014722D01*
X002788Y014662D02*
X002788Y014602D01*
X002728Y014542D01*
X002548Y014542D01*
X002420Y014422D02*
X002420Y014722D01*
X002548Y014722D02*
X002728Y014722D01*
X002788Y014662D01*
X002728Y014542D02*
X002788Y014482D01*
X002788Y014422D01*
X002728Y014362D01*
X002548Y014362D01*
X002548Y014722D01*
X002420Y014422D02*
X002360Y014362D01*
X002240Y014362D01*
X002180Y014422D01*
X002180Y014722D01*
X002051Y014662D02*
X001991Y014722D01*
X001871Y014722D01*
X001811Y014662D01*
X001811Y014422D01*
X001871Y014362D01*
X001991Y014362D01*
X002051Y014422D01*
X003840Y015269D02*
X003926Y015182D01*
X004273Y015182D01*
X004360Y015269D01*
X004360Y015442D01*
X004273Y015529D01*
X004100Y015529D01*
X004100Y015355D01*
X003926Y015529D02*
X003840Y015442D01*
X003840Y015269D01*
X003840Y015698D02*
X004360Y016044D01*
X003840Y016044D01*
X003840Y016213D02*
X003840Y016473D01*
X003926Y016560D01*
X004273Y016560D01*
X004360Y016473D01*
X004360Y016213D01*
X003840Y016213D01*
X003840Y015698D02*
X004360Y015698D01*
X004840Y015784D02*
X004926Y015698D01*
X005013Y015698D01*
X005100Y015784D01*
X005100Y015958D01*
X005187Y016044D01*
X005273Y016044D01*
X005360Y015958D01*
X005360Y015784D01*
X005273Y015698D01*
X005187Y015529D02*
X005360Y015355D01*
X005187Y015182D01*
X004840Y015182D01*
X004840Y015529D02*
X005187Y015529D01*
X004840Y015958D02*
X004926Y016044D01*
X004840Y015958D02*
X004840Y015784D01*
X004840Y016213D02*
X004926Y016213D01*
X005100Y016387D01*
X005360Y016387D01*
X005100Y016387D02*
X004926Y016560D01*
X004840Y016560D01*
X004840Y016729D02*
X005360Y017076D01*
X004840Y017076D01*
X004840Y016729D02*
X005360Y016729D01*
X005840Y016729D02*
X006360Y017076D01*
X005840Y017076D01*
X005840Y016729D02*
X006360Y016729D01*
X006360Y016387D02*
X006100Y016387D01*
X005926Y016560D01*
X005840Y016560D01*
X006100Y016387D02*
X005926Y016213D01*
X005840Y016213D01*
X005926Y016044D02*
X005840Y015958D01*
X005840Y015784D01*
X005926Y015698D01*
X006013Y015698D01*
X006100Y015784D01*
X006100Y015958D01*
X006187Y016044D01*
X006273Y016044D01*
X006360Y015958D01*
X006360Y015784D01*
X006273Y015698D01*
X006360Y015529D02*
X005840Y015529D01*
X006100Y015529D02*
X006100Y015182D01*
X006360Y015182D02*
X005840Y015182D01*
X006840Y015182D02*
X006840Y015442D01*
X006926Y015529D01*
X007013Y015529D01*
X007100Y015442D01*
X007100Y015182D01*
X007100Y015442D02*
X007187Y015529D01*
X007273Y015529D01*
X007360Y015442D01*
X007360Y015182D01*
X006840Y015182D01*
X006840Y015698D02*
X007360Y015698D01*
X007360Y016044D01*
X007273Y016213D02*
X007360Y016300D01*
X007360Y016473D01*
X007273Y016560D01*
X006840Y016560D01*
X006840Y016729D02*
X007360Y016729D01*
X007360Y017076D01*
X007100Y016902D02*
X007100Y016729D01*
X006840Y016729D02*
X006840Y017076D01*
X006840Y016213D02*
X007273Y016213D01*
X007840Y016213D02*
X008360Y016560D01*
X007840Y016560D01*
X007840Y016213D02*
X008360Y016213D01*
X008360Y016044D02*
X008187Y015871D01*
X008187Y015958D02*
X008187Y015698D01*
X008273Y015529D02*
X008100Y015529D01*
X008100Y015355D01*
X008273Y015182D02*
X008360Y015269D01*
X008360Y015442D01*
X008273Y015529D01*
X008360Y015698D02*
X007840Y015698D01*
X007840Y015958D01*
X007926Y016044D01*
X008100Y016044D01*
X008187Y015958D01*
X007926Y015529D02*
X007840Y015442D01*
X007840Y015269D01*
X007926Y015182D01*
X008273Y015182D01*
X008840Y015182D02*
X008840Y015442D01*
X008926Y015529D01*
X009100Y015529D01*
X009187Y015442D01*
X009187Y015182D01*
X009360Y015182D02*
X008840Y015182D01*
X008840Y015698D02*
X009360Y015698D01*
X009360Y016044D01*
X009360Y016213D02*
X009360Y016473D01*
X009273Y016560D01*
X008926Y016560D01*
X008840Y016473D01*
X008840Y016213D01*
X009360Y016213D01*
X009100Y015871D02*
X009100Y015698D01*
X009360Y015529D02*
X009187Y015355D01*
X008840Y015698D02*
X008840Y016044D01*
X009840Y015958D02*
X009840Y015784D01*
X009926Y015698D01*
X010273Y015698D01*
X010360Y015784D01*
X010360Y015958D01*
X010273Y016044D01*
X010273Y016213D02*
X010360Y016300D01*
X010360Y016473D01*
X010273Y016560D01*
X010273Y016213D02*
X009926Y016213D01*
X009840Y016300D01*
X009840Y016473D01*
X009926Y016560D01*
X009926Y016044D02*
X009840Y015958D01*
X009840Y015529D02*
X010187Y015529D01*
X010360Y015355D01*
X010187Y015182D01*
X009840Y015182D01*
X010360Y013629D02*
X010360Y013282D01*
X010360Y013455D02*
X009840Y013455D01*
X010013Y013282D01*
X009884Y012482D02*
X009703Y012482D01*
X009703Y012122D01*
X009703Y012242D02*
X009884Y012242D01*
X009944Y012302D01*
X009944Y012422D01*
X009884Y012482D01*
X010072Y012362D02*
X010192Y012482D01*
X010192Y012122D01*
X010072Y012122D02*
X010312Y012122D01*
X009944Y012122D02*
X009823Y012242D01*
X009884Y011282D02*
X009703Y011282D01*
X009703Y010922D01*
X009703Y011042D02*
X009884Y011042D01*
X009944Y011102D01*
X009944Y011222D01*
X009884Y011282D01*
X010072Y011222D02*
X010132Y011282D01*
X010252Y011282D01*
X010312Y011222D01*
X010312Y011162D01*
X010072Y010922D01*
X010312Y010922D01*
X009944Y010922D02*
X009823Y011042D01*
X009884Y010082D02*
X009703Y010082D01*
X009703Y009722D01*
X009703Y009842D02*
X009884Y009842D01*
X009944Y009902D01*
X009944Y010022D01*
X009884Y010082D01*
X010072Y010022D02*
X010132Y010082D01*
X010252Y010082D01*
X010312Y010022D01*
X010312Y009962D01*
X010252Y009902D01*
X010312Y009842D01*
X010312Y009782D01*
X010252Y009722D01*
X010132Y009722D01*
X010072Y009782D01*
X009944Y009722D02*
X009823Y009842D01*
X010192Y009902D02*
X010252Y009902D01*
X009768Y003742D02*
X009768Y003282D01*
X009692Y003282D02*
X009845Y003282D01*
X009998Y003359D02*
X009998Y003512D01*
X010075Y003589D01*
X010229Y003589D01*
X010305Y003512D01*
X010305Y003435D01*
X009998Y003435D01*
X009998Y003359D02*
X010075Y003282D01*
X010229Y003282D01*
X009768Y003742D02*
X009692Y003742D01*
X009538Y003512D02*
X009538Y003282D01*
X009308Y003282D01*
X009231Y003359D01*
X009308Y003435D01*
X009538Y003435D01*
X009538Y003512D02*
X009461Y003589D01*
X009308Y003589D01*
X009078Y003512D02*
X009078Y003282D01*
X008924Y003282D02*
X008924Y003512D01*
X009001Y003589D01*
X009078Y003512D01*
X008924Y003512D02*
X008848Y003589D01*
X008771Y003589D01*
X008771Y003282D01*
X008617Y003435D02*
X008310Y003435D01*
X008310Y003359D02*
X008310Y003512D01*
X008387Y003589D01*
X008541Y003589D01*
X008617Y003512D01*
X008617Y003435D01*
X008541Y003282D02*
X008387Y003282D01*
X008310Y003359D01*
X008003Y003512D02*
X007850Y003512D01*
X007850Y003282D02*
X007850Y003742D01*
X008157Y003742D01*
D12*
X008015Y009327D02*
X007645Y009327D01*
X007645Y009512D01*
X007706Y009574D01*
X007953Y009574D01*
X008015Y009512D01*
X008015Y009327D01*
X008015Y009695D02*
X007768Y009942D01*
X007706Y009942D01*
X007645Y009880D01*
X007645Y009757D01*
X007706Y009695D01*
X008015Y009695D02*
X008015Y009942D01*
X008074Y012252D02*
X007827Y012252D01*
X007950Y012252D02*
X007950Y012622D01*
X007827Y012499D01*
X007705Y012560D02*
X007644Y012622D01*
X007520Y012622D01*
X007458Y012560D01*
X007458Y012314D01*
X007520Y012252D01*
X007644Y012252D01*
X007705Y012314D01*
X003715Y010905D02*
X003715Y010659D01*
X003715Y010782D02*
X003345Y010782D01*
X003468Y010659D01*
X003406Y010537D02*
X003345Y010475D01*
X003345Y010290D01*
X003715Y010290D01*
X003715Y010475D01*
X003653Y010537D01*
X003406Y010537D01*
X003153Y013877D02*
X002968Y013877D01*
X002968Y014247D01*
X003153Y014247D01*
X003215Y014185D01*
X003215Y013939D01*
X003153Y013877D01*
X002847Y013877D02*
X002723Y014000D01*
X002785Y014000D02*
X002600Y014000D01*
X002600Y013877D02*
X002600Y014247D01*
X002785Y014247D01*
X002847Y014185D01*
X002847Y014062D01*
X002785Y014000D01*
X002479Y014062D02*
X002232Y014062D01*
X002232Y014124D02*
X002232Y013877D01*
X002110Y013939D02*
X002110Y014185D01*
X002048Y014247D01*
X001925Y014247D01*
X001863Y014185D01*
X001863Y013939D01*
X001925Y013877D01*
X002048Y013877D01*
X002110Y013939D01*
X002232Y014124D02*
X002355Y014247D01*
X002479Y014124D01*
X002479Y013877D01*
X001742Y013939D02*
X001680Y013877D01*
X001495Y013877D01*
X001495Y014247D01*
X001680Y014247D01*
X001742Y014185D01*
X001742Y014124D01*
X001680Y014062D01*
X001495Y014062D01*
X001680Y014062D02*
X001742Y014000D01*
X001742Y013939D01*
D13*
X000780Y004062D02*
X000780Y002623D01*
X000825Y002615D02*
X012973Y002615D01*
X012980Y002623D02*
X012980Y008562D01*
X012730Y008812D01*
X010830Y008812D01*
X010630Y008612D01*
X010630Y004062D01*
X010615Y003812D02*
X010615Y002980D01*
X003145Y002980D01*
X003095Y002980D01*
X003095Y002623D01*
X003145Y002980D02*
X003145Y003812D01*
X003147Y003842D01*
X003152Y003872D01*
X003161Y003901D01*
X003174Y003928D01*
X003189Y003954D01*
X003208Y003978D01*
X003229Y003999D01*
X003253Y004018D01*
X003279Y004033D01*
X003306Y004046D01*
X003335Y004055D01*
X003365Y004060D01*
X003395Y004062D01*
X003130Y004062D02*
X003130Y008612D01*
X002930Y008812D01*
X000980Y008812D01*
X000780Y008612D01*
X000780Y004062D01*
X012973Y004062D01*
X010665Y002980D02*
X010665Y002623D01*
X010665Y002980D02*
X010615Y002980D01*
X010330Y002619D02*
X010300Y002617D01*
X010270Y002612D01*
X010241Y002603D01*
X010214Y002590D01*
X010188Y002575D01*
X010164Y002556D01*
X010143Y002535D01*
X010124Y002511D01*
X010109Y002485D01*
X010096Y002458D01*
X010087Y002429D01*
X010082Y002399D01*
X010080Y002369D01*
X010080Y000330D01*
X010078Y000304D01*
X010073Y000278D01*
X010065Y000253D01*
X010053Y000230D01*
X010039Y000208D01*
X010021Y000189D01*
X010002Y000171D01*
X009980Y000157D01*
X009957Y000145D01*
X009932Y000137D01*
X009906Y000132D01*
X009880Y000130D01*
X003880Y000130D01*
X003854Y000132D01*
X003828Y000137D01*
X003803Y000145D01*
X003780Y000157D01*
X003758Y000171D01*
X003739Y000189D01*
X003721Y000208D01*
X003707Y000230D01*
X003695Y000253D01*
X003687Y000278D01*
X003682Y000304D01*
X003680Y000330D01*
X003680Y002369D01*
X003678Y002399D01*
X003673Y002429D01*
X003664Y002458D01*
X003651Y002485D01*
X003636Y002511D01*
X003617Y002535D01*
X003596Y002556D01*
X003572Y002575D01*
X003546Y002590D01*
X003519Y002603D01*
X003490Y002612D01*
X003460Y002617D01*
X003430Y002619D01*
X001309Y007062D02*
X001311Y007112D01*
X001317Y007162D01*
X001327Y007212D01*
X001340Y007260D01*
X001357Y007308D01*
X001378Y007354D01*
X001402Y007398D01*
X001430Y007440D01*
X001461Y007480D01*
X001495Y007517D01*
X001532Y007552D01*
X001571Y007583D01*
X001612Y007612D01*
X001656Y007637D01*
X001702Y007659D01*
X001749Y007677D01*
X001797Y007691D01*
X001846Y007702D01*
X001896Y007709D01*
X001946Y007712D01*
X001997Y007711D01*
X002047Y007706D01*
X002097Y007697D01*
X002145Y007685D01*
X002193Y007668D01*
X002239Y007648D01*
X002284Y007625D01*
X002327Y007598D01*
X002367Y007568D01*
X002405Y007535D01*
X002440Y007499D01*
X002473Y007460D01*
X002502Y007419D01*
X002528Y007376D01*
X002551Y007331D01*
X002570Y007284D01*
X002585Y007236D01*
X002597Y007187D01*
X002605Y007137D01*
X002609Y007087D01*
X002609Y007037D01*
X002605Y006987D01*
X002597Y006937D01*
X002585Y006888D01*
X002570Y006840D01*
X002551Y006793D01*
X002528Y006748D01*
X002502Y006705D01*
X002473Y006664D01*
X002440Y006625D01*
X002405Y006589D01*
X002367Y006556D01*
X002327Y006526D01*
X002284Y006499D01*
X002239Y006476D01*
X002193Y006456D01*
X002145Y006439D01*
X002097Y006427D01*
X002047Y006418D01*
X001997Y006413D01*
X001946Y006412D01*
X001896Y006415D01*
X001846Y006422D01*
X001797Y006433D01*
X001749Y006447D01*
X001702Y006465D01*
X001656Y006487D01*
X001612Y006512D01*
X001571Y006541D01*
X001532Y006572D01*
X001495Y006607D01*
X001461Y006644D01*
X001430Y006684D01*
X001402Y006726D01*
X001378Y006770D01*
X001357Y006816D01*
X001340Y006864D01*
X001327Y006912D01*
X001317Y006962D01*
X001311Y007012D01*
X001309Y007062D01*
X002620Y009402D02*
X002620Y010522D01*
X003140Y010522D01*
X003140Y010302D01*
X003140Y010522D02*
X002820Y010522D01*
X003140Y010522D02*
X003140Y009402D01*
X003140Y009622D01*
X003140Y009402D02*
X002820Y009402D01*
X002620Y009402D02*
X003140Y009402D01*
X004810Y009362D02*
X004810Y012562D01*
X004812Y012585D01*
X004817Y012608D01*
X004826Y012630D01*
X004839Y012650D01*
X004854Y012668D01*
X004872Y012683D01*
X004892Y012696D01*
X004914Y012705D01*
X004937Y012710D01*
X004960Y012712D01*
X005380Y012712D01*
X005780Y012712D01*
X006200Y012712D01*
X006223Y012710D01*
X006246Y012705D01*
X006268Y012696D01*
X006288Y012683D01*
X006306Y012668D01*
X006321Y012650D01*
X006334Y012630D01*
X006343Y012608D01*
X006348Y012585D01*
X006350Y012562D01*
X006350Y009362D01*
X006348Y009339D01*
X006343Y009316D01*
X006334Y009294D01*
X006321Y009274D01*
X006306Y009256D01*
X006288Y009241D01*
X006268Y009228D01*
X006246Y009219D01*
X006223Y009214D01*
X006200Y009212D01*
X004960Y009212D01*
X004937Y009214D01*
X004914Y009219D01*
X004892Y009228D01*
X004872Y009241D01*
X004854Y009256D01*
X004839Y009274D01*
X004826Y009294D01*
X004817Y009316D01*
X004812Y009339D01*
X004810Y009362D01*
X005380Y012712D02*
X005382Y012685D01*
X005387Y012658D01*
X005397Y012632D01*
X005409Y012608D01*
X005425Y012586D01*
X005443Y012566D01*
X005465Y012549D01*
X005488Y012534D01*
X005513Y012524D01*
X005539Y012516D01*
X005566Y012512D01*
X005594Y012512D01*
X005621Y012516D01*
X005647Y012524D01*
X005672Y012534D01*
X005695Y012549D01*
X005717Y012566D01*
X005735Y012586D01*
X005751Y012608D01*
X005763Y012632D01*
X005773Y012658D01*
X005778Y012685D01*
X005780Y012712D01*
X005830Y013862D02*
X005580Y014112D01*
X005580Y014612D01*
X005830Y014862D01*
X006330Y014862D01*
X006580Y014612D01*
X006830Y014862D01*
X007330Y014862D01*
X007580Y014612D01*
X007830Y014862D01*
X008330Y014862D01*
X008580Y014612D01*
X008830Y014862D01*
X009330Y014862D01*
X009580Y014612D01*
X009830Y014862D01*
X010330Y014862D01*
X010580Y014612D01*
X010580Y014112D01*
X010330Y013862D01*
X009830Y013862D01*
X009580Y014112D01*
X009330Y013862D01*
X008830Y013862D01*
X008580Y014112D01*
X008580Y014612D01*
X008580Y014112D02*
X008330Y013862D01*
X007830Y013862D01*
X007580Y014112D01*
X007330Y013862D01*
X006830Y013862D01*
X006580Y014112D01*
X006330Y013862D01*
X005830Y013862D01*
X005580Y014112D02*
X005330Y013862D01*
X004830Y013862D01*
X004580Y014112D01*
X004330Y013862D01*
X003830Y013862D01*
X003580Y014112D01*
X003580Y014612D01*
X003830Y014862D01*
X004330Y014862D01*
X004580Y014612D01*
X004830Y014862D01*
X005330Y014862D01*
X005580Y014612D01*
X004580Y014612D02*
X004580Y014112D01*
X006580Y014112D02*
X006580Y014612D01*
X007580Y014612D02*
X007580Y014112D01*
X008662Y012698D02*
X008898Y012698D01*
X008898Y012226D02*
X008662Y012226D01*
X008640Y011022D02*
X008120Y011022D01*
X008120Y010802D01*
X008120Y011022D02*
X008440Y011022D01*
X008640Y011022D02*
X008640Y009902D01*
X008120Y009902D01*
X008120Y010122D01*
X008120Y009902D02*
X008440Y009902D01*
X008120Y009902D02*
X008120Y011022D01*
X009580Y014112D02*
X009580Y014612D01*
X011430Y012362D02*
X011432Y012399D01*
X011438Y012436D01*
X011448Y012472D01*
X011461Y012507D01*
X011478Y012540D01*
X011499Y012571D01*
X011523Y012599D01*
X011550Y012625D01*
X011579Y012648D01*
X011610Y012668D01*
X011644Y012684D01*
X011679Y012697D01*
X011715Y012706D01*
X011752Y012711D01*
X011789Y012712D01*
X011826Y012709D01*
X011863Y012702D01*
X011899Y012691D01*
X011933Y012677D01*
X011966Y012659D01*
X011996Y012637D01*
X012024Y012613D01*
X012049Y012585D01*
X012072Y012555D01*
X012091Y012523D01*
X012106Y012489D01*
X012118Y012454D01*
X012126Y012418D01*
X012130Y012381D01*
X012130Y012343D01*
X012126Y012306D01*
X012118Y012270D01*
X012106Y012235D01*
X012091Y012201D01*
X012072Y012169D01*
X012049Y012139D01*
X012024Y012111D01*
X011996Y012087D01*
X011966Y012065D01*
X011933Y012047D01*
X011899Y012033D01*
X011863Y012022D01*
X011826Y012015D01*
X011789Y012012D01*
X011752Y012013D01*
X011715Y012018D01*
X011679Y012027D01*
X011644Y012040D01*
X011610Y012056D01*
X011579Y012076D01*
X011550Y012099D01*
X011523Y012125D01*
X011499Y012153D01*
X011478Y012184D01*
X011461Y012217D01*
X011448Y012252D01*
X011438Y012288D01*
X011432Y012325D01*
X011430Y012362D01*
X011430Y011162D02*
X011432Y011199D01*
X011438Y011236D01*
X011448Y011272D01*
X011461Y011307D01*
X011478Y011340D01*
X011499Y011371D01*
X011523Y011399D01*
X011550Y011425D01*
X011579Y011448D01*
X011610Y011468D01*
X011644Y011484D01*
X011679Y011497D01*
X011715Y011506D01*
X011752Y011511D01*
X011789Y011512D01*
X011826Y011509D01*
X011863Y011502D01*
X011899Y011491D01*
X011933Y011477D01*
X011966Y011459D01*
X011996Y011437D01*
X012024Y011413D01*
X012049Y011385D01*
X012072Y011355D01*
X012091Y011323D01*
X012106Y011289D01*
X012118Y011254D01*
X012126Y011218D01*
X012130Y011181D01*
X012130Y011143D01*
X012126Y011106D01*
X012118Y011070D01*
X012106Y011035D01*
X012091Y011001D01*
X012072Y010969D01*
X012049Y010939D01*
X012024Y010911D01*
X011996Y010887D01*
X011966Y010865D01*
X011933Y010847D01*
X011899Y010833D01*
X011863Y010822D01*
X011826Y010815D01*
X011789Y010812D01*
X011752Y010813D01*
X011715Y010818D01*
X011679Y010827D01*
X011644Y010840D01*
X011610Y010856D01*
X011579Y010876D01*
X011550Y010899D01*
X011523Y010925D01*
X011499Y010953D01*
X011478Y010984D01*
X011461Y011017D01*
X011448Y011052D01*
X011438Y011088D01*
X011432Y011125D01*
X011430Y011162D01*
X011430Y009962D02*
X011432Y009999D01*
X011438Y010036D01*
X011448Y010072D01*
X011461Y010107D01*
X011478Y010140D01*
X011499Y010171D01*
X011523Y010199D01*
X011550Y010225D01*
X011579Y010248D01*
X011610Y010268D01*
X011644Y010284D01*
X011679Y010297D01*
X011715Y010306D01*
X011752Y010311D01*
X011789Y010312D01*
X011826Y010309D01*
X011863Y010302D01*
X011899Y010291D01*
X011933Y010277D01*
X011966Y010259D01*
X011996Y010237D01*
X012024Y010213D01*
X012049Y010185D01*
X012072Y010155D01*
X012091Y010123D01*
X012106Y010089D01*
X012118Y010054D01*
X012126Y010018D01*
X012130Y009981D01*
X012130Y009943D01*
X012126Y009906D01*
X012118Y009870D01*
X012106Y009835D01*
X012091Y009801D01*
X012072Y009769D01*
X012049Y009739D01*
X012024Y009711D01*
X011996Y009687D01*
X011966Y009665D01*
X011933Y009647D01*
X011899Y009633D01*
X011863Y009622D01*
X011826Y009615D01*
X011789Y009612D01*
X011752Y009613D01*
X011715Y009618D01*
X011679Y009627D01*
X011644Y009640D01*
X011610Y009656D01*
X011579Y009676D01*
X011550Y009699D01*
X011523Y009725D01*
X011499Y009753D01*
X011478Y009784D01*
X011461Y009817D01*
X011448Y009852D01*
X011438Y009888D01*
X011432Y009925D01*
X011430Y009962D01*
X011151Y007062D02*
X011153Y007112D01*
X011159Y007162D01*
X011169Y007212D01*
X011182Y007260D01*
X011199Y007308D01*
X011220Y007354D01*
X011244Y007398D01*
X011272Y007440D01*
X011303Y007480D01*
X011337Y007517D01*
X011374Y007552D01*
X011413Y007583D01*
X011454Y007612D01*
X011498Y007637D01*
X011544Y007659D01*
X011591Y007677D01*
X011639Y007691D01*
X011688Y007702D01*
X011738Y007709D01*
X011788Y007712D01*
X011839Y007711D01*
X011889Y007706D01*
X011939Y007697D01*
X011987Y007685D01*
X012035Y007668D01*
X012081Y007648D01*
X012126Y007625D01*
X012169Y007598D01*
X012209Y007568D01*
X012247Y007535D01*
X012282Y007499D01*
X012315Y007460D01*
X012344Y007419D01*
X012370Y007376D01*
X012393Y007331D01*
X012412Y007284D01*
X012427Y007236D01*
X012439Y007187D01*
X012447Y007137D01*
X012451Y007087D01*
X012451Y007037D01*
X012447Y006987D01*
X012439Y006937D01*
X012427Y006888D01*
X012412Y006840D01*
X012393Y006793D01*
X012370Y006748D01*
X012344Y006705D01*
X012315Y006664D01*
X012282Y006625D01*
X012247Y006589D01*
X012209Y006556D01*
X012169Y006526D01*
X012126Y006499D01*
X012081Y006476D01*
X012035Y006456D01*
X011987Y006439D01*
X011939Y006427D01*
X011889Y006418D01*
X011839Y006413D01*
X011788Y006412D01*
X011738Y006415D01*
X011688Y006422D01*
X011639Y006433D01*
X011591Y006447D01*
X011544Y006465D01*
X011498Y006487D01*
X011454Y006512D01*
X011413Y006541D01*
X011374Y006572D01*
X011337Y006607D01*
X011303Y006644D01*
X011272Y006684D01*
X011244Y006726D01*
X011220Y006770D01*
X011199Y006816D01*
X011182Y006864D01*
X011169Y006912D01*
X011159Y006962D01*
X011153Y007012D01*
X011151Y007062D01*
X010365Y004062D02*
X010395Y004060D01*
X010425Y004055D01*
X010454Y004046D01*
X010481Y004033D01*
X010507Y004018D01*
X010531Y003999D01*
X010552Y003978D01*
X010571Y003954D01*
X010586Y003928D01*
X010599Y003901D01*
X010608Y003872D01*
X010613Y003842D01*
X010615Y003812D01*
D14*
X010020Y005801D02*
X009720Y005801D01*
X009870Y005801D02*
X009870Y006252D01*
X009720Y006102D01*
X009560Y005801D02*
X009259Y005801D01*
X009409Y005801D02*
X009409Y006252D01*
X009259Y006102D01*
X009571Y006864D02*
X009721Y006864D01*
X009796Y006940D01*
X009796Y007015D01*
X009721Y007090D01*
X009496Y007090D01*
X009496Y006940D01*
X009571Y006864D01*
X009496Y007090D02*
X009646Y007240D01*
X009796Y007315D01*
X009363Y007912D02*
X009062Y007912D01*
X009213Y007912D02*
X009213Y008362D01*
X009062Y008212D01*
X004864Y007200D02*
X004864Y006900D01*
X004789Y006825D01*
X004639Y006825D01*
X004564Y006900D01*
X004864Y007200D01*
X004789Y007275D01*
X004639Y007275D01*
X004564Y007200D01*
X004564Y006900D01*
X004404Y006825D02*
X004104Y006825D01*
X004254Y006825D02*
X004254Y007275D01*
X004104Y007125D01*
X004258Y007872D02*
X004183Y007947D01*
X004258Y007872D02*
X004408Y007872D01*
X004483Y007947D01*
X004483Y008098D01*
X004408Y008173D01*
X004333Y008173D01*
X004183Y008098D01*
X004183Y008323D01*
X004483Y008323D01*
X004587Y006134D02*
X004287Y006134D01*
X004287Y005909D01*
X004437Y005984D01*
X004512Y005984D01*
X004587Y005909D01*
X004587Y005758D01*
X004512Y005683D01*
X004362Y005683D01*
X004287Y005758D01*
X004127Y005683D02*
X003826Y005683D01*
X003976Y005683D02*
X003976Y006134D01*
X003826Y005984D01*
X004408Y001703D02*
X004408Y001253D01*
X004408Y001478D02*
X004708Y001478D01*
X004708Y001703D02*
X004708Y001253D01*
X004868Y001253D02*
X004868Y001703D01*
X005093Y001703D01*
X005168Y001628D01*
X005168Y001328D01*
X005093Y001253D01*
X004868Y001253D01*
X005328Y001253D02*
X005328Y001703D01*
X005629Y001703D01*
X005479Y001478D02*
X005328Y001478D01*
X005789Y001553D02*
X005939Y001703D01*
X005939Y001253D01*
X005789Y001253D02*
X006089Y001253D01*
X006249Y001328D02*
X006324Y001253D01*
X006474Y001253D01*
X006549Y001328D01*
X006549Y001478D01*
X006474Y001553D01*
X006399Y001553D01*
X006249Y001478D01*
X006249Y001703D01*
X006549Y001703D01*
X007170Y001628D02*
X007170Y001328D01*
X007245Y001253D01*
X007395Y001253D01*
X007470Y001328D01*
X007630Y001328D02*
X007705Y001253D01*
X007856Y001253D01*
X007931Y001328D01*
X007931Y001628D01*
X007856Y001703D01*
X007705Y001703D01*
X007630Y001628D01*
X007630Y001328D01*
X007470Y001628D02*
X007395Y001703D01*
X007245Y001703D01*
X007170Y001628D01*
X008091Y001703D02*
X008091Y001253D01*
X008391Y001253D02*
X008091Y001703D01*
X008391Y001703D02*
X008391Y001253D01*
X008551Y001253D02*
X008851Y001253D01*
X009012Y001328D02*
X009087Y001253D01*
X009237Y001253D01*
X009312Y001328D01*
X009312Y001628D02*
X009237Y001703D01*
X009087Y001703D01*
X009012Y001628D01*
X009012Y001328D01*
X008701Y001478D02*
X008551Y001478D01*
X008551Y001703D02*
X008551Y001253D01*
X008551Y001703D02*
X008851Y001703D01*
D15*
X009034Y005271D03*
X008134Y005271D03*
X007234Y005271D03*
X006334Y005271D03*
X005434Y005271D03*
D16*
X004984Y004778D03*
X005884Y004778D03*
X006784Y004778D03*
X007684Y004778D03*
X008584Y004778D03*
D17*
X008584Y007042D03*
X007684Y007042D03*
X006784Y007042D03*
X005884Y007042D03*
X004984Y007042D03*
D18*
X004950Y009212D02*
X004950Y012712D01*
X011530Y012362D02*
X011532Y012393D01*
X011538Y012424D01*
X011548Y012454D01*
X011561Y012482D01*
X011578Y012509D01*
X011598Y012533D01*
X011621Y012555D01*
X011646Y012573D01*
X011674Y012588D01*
X011703Y012600D01*
X011733Y012608D01*
X011764Y012612D01*
X011796Y012612D01*
X011827Y012608D01*
X011857Y012600D01*
X011886Y012588D01*
X011914Y012573D01*
X011939Y012555D01*
X011962Y012533D01*
X011982Y012509D01*
X011999Y012482D01*
X012012Y012454D01*
X012022Y012424D01*
X012028Y012393D01*
X012030Y012362D01*
X012028Y012331D01*
X012022Y012300D01*
X012012Y012270D01*
X011999Y012242D01*
X011982Y012215D01*
X011962Y012191D01*
X011939Y012169D01*
X011914Y012151D01*
X011886Y012136D01*
X011857Y012124D01*
X011827Y012116D01*
X011796Y012112D01*
X011764Y012112D01*
X011733Y012116D01*
X011703Y012124D01*
X011674Y012136D01*
X011646Y012151D01*
X011621Y012169D01*
X011598Y012191D01*
X011578Y012215D01*
X011561Y012242D01*
X011548Y012270D01*
X011538Y012300D01*
X011532Y012331D01*
X011530Y012362D01*
X011530Y011162D02*
X011532Y011193D01*
X011538Y011224D01*
X011548Y011254D01*
X011561Y011282D01*
X011578Y011309D01*
X011598Y011333D01*
X011621Y011355D01*
X011646Y011373D01*
X011674Y011388D01*
X011703Y011400D01*
X011733Y011408D01*
X011764Y011412D01*
X011796Y011412D01*
X011827Y011408D01*
X011857Y011400D01*
X011886Y011388D01*
X011914Y011373D01*
X011939Y011355D01*
X011962Y011333D01*
X011982Y011309D01*
X011999Y011282D01*
X012012Y011254D01*
X012022Y011224D01*
X012028Y011193D01*
X012030Y011162D01*
X012028Y011131D01*
X012022Y011100D01*
X012012Y011070D01*
X011999Y011042D01*
X011982Y011015D01*
X011962Y010991D01*
X011939Y010969D01*
X011914Y010951D01*
X011886Y010936D01*
X011857Y010924D01*
X011827Y010916D01*
X011796Y010912D01*
X011764Y010912D01*
X011733Y010916D01*
X011703Y010924D01*
X011674Y010936D01*
X011646Y010951D01*
X011621Y010969D01*
X011598Y010991D01*
X011578Y011015D01*
X011561Y011042D01*
X011548Y011070D01*
X011538Y011100D01*
X011532Y011131D01*
X011530Y011162D01*
X011530Y009962D02*
X011532Y009993D01*
X011538Y010024D01*
X011548Y010054D01*
X011561Y010082D01*
X011578Y010109D01*
X011598Y010133D01*
X011621Y010155D01*
X011646Y010173D01*
X011674Y010188D01*
X011703Y010200D01*
X011733Y010208D01*
X011764Y010212D01*
X011796Y010212D01*
X011827Y010208D01*
X011857Y010200D01*
X011886Y010188D01*
X011914Y010173D01*
X011939Y010155D01*
X011962Y010133D01*
X011982Y010109D01*
X011999Y010082D01*
X012012Y010054D01*
X012022Y010024D01*
X012028Y009993D01*
X012030Y009962D01*
X012028Y009931D01*
X012022Y009900D01*
X012012Y009870D01*
X011999Y009842D01*
X011982Y009815D01*
X011962Y009791D01*
X011939Y009769D01*
X011914Y009751D01*
X011886Y009736D01*
X011857Y009724D01*
X011827Y009716D01*
X011796Y009712D01*
X011764Y009712D01*
X011733Y009716D01*
X011703Y009724D01*
X011674Y009736D01*
X011646Y009751D01*
X011621Y009769D01*
X011598Y009791D01*
X011578Y009815D01*
X011561Y009842D01*
X011548Y009870D01*
X011538Y009900D01*
X011532Y009931D01*
X011530Y009962D01*
D19*
X006575Y009962D03*
X006575Y010462D03*
X006575Y010962D03*
X006575Y011462D03*
X006575Y011962D03*
X006575Y012462D03*
X004585Y012462D03*
X004585Y011962D03*
X004595Y011462D03*
X004585Y010962D03*
X004585Y010462D03*
X004585Y009962D03*
X004585Y009462D03*
X006575Y009462D03*
D20*
X006080Y014362D03*
X007080Y014362D03*
X008080Y014362D03*
X009080Y014362D03*
X010080Y014362D03*
X005080Y014362D03*
X004080Y014362D03*
D21*
X010780Y012362D02*
X011780Y012362D01*
X011330Y012362D02*
X011230Y012362D01*
X011230Y011162D02*
X011330Y011162D01*
X011780Y011162D02*
X010780Y011162D01*
X010780Y009962D02*
X011780Y009962D01*
X011330Y009962D02*
X011230Y009962D01*
D22*
X008775Y010092D03*
X008775Y010832D03*
X007985Y010462D03*
X003275Y009962D03*
X002485Y010332D03*
X002485Y009592D03*
D23*
X002786Y011286D02*
X002956Y011456D01*
X002754Y011703D01*
X002805Y011803D01*
X002839Y011910D01*
X003157Y011942D01*
X003157Y012182D01*
X002839Y012214D01*
X002805Y012321D01*
X002754Y012420D01*
X002956Y012668D01*
X002786Y012837D01*
X002539Y012636D01*
X002439Y012687D01*
X002332Y012721D01*
X002300Y013039D01*
X002060Y013039D01*
X002028Y012721D01*
X001921Y012687D01*
X001821Y012636D01*
X001574Y012837D01*
X001404Y012668D01*
X001606Y012420D01*
X001555Y012321D01*
X001521Y012214D01*
X001203Y012182D01*
X001203Y011942D01*
X001521Y011910D01*
X001555Y011803D01*
X001606Y011703D01*
X001404Y011456D01*
X001574Y011286D01*
X001821Y011488D01*
X001921Y011437D01*
X002062Y011778D01*
X002009Y011806D01*
X001962Y011844D01*
X001924Y011891D01*
X001896Y011944D01*
X001878Y012002D01*
X001872Y012062D01*
X001879Y012125D01*
X001898Y012185D01*
X001929Y012240D01*
X001971Y012287D01*
X002021Y012325D01*
X002078Y012352D01*
X002140Y012367D01*
X002203Y012369D01*
X002265Y012357D01*
X002324Y012334D01*
X002376Y012299D01*
X002420Y012254D01*
X002455Y012201D01*
X002477Y012142D01*
X002487Y012079D01*
X002484Y012016D01*
X002468Y011955D01*
X002440Y011898D01*
X002402Y011849D01*
X002353Y011808D01*
X002298Y011778D01*
X002439Y011437D01*
X002539Y011488D01*
X002786Y011286D01*
X002793Y011293D02*
X002778Y011293D01*
X002707Y011351D02*
X002850Y011351D01*
X002908Y011408D02*
X002637Y011408D01*
X002566Y011466D02*
X002948Y011466D01*
X002901Y011523D02*
X002403Y011523D01*
X002427Y011466D02*
X002495Y011466D01*
X002379Y011581D02*
X002854Y011581D01*
X002807Y011638D02*
X002355Y011638D01*
X002332Y011696D02*
X002760Y011696D01*
X002780Y011753D02*
X002308Y011753D01*
X002357Y011811D02*
X002808Y011811D01*
X002826Y011869D02*
X002417Y011869D01*
X002454Y011926D02*
X003001Y011926D01*
X003157Y011984D02*
X002476Y011984D01*
X002485Y012041D02*
X003157Y012041D01*
X003157Y012099D02*
X002484Y012099D01*
X002471Y012156D02*
X003157Y012156D01*
X002842Y012214D02*
X002446Y012214D01*
X002403Y012271D02*
X002821Y012271D01*
X002801Y012329D02*
X002331Y012329D01*
X002029Y012329D02*
X001559Y012329D01*
X001539Y012271D02*
X001957Y012271D01*
X001914Y012214D02*
X001518Y012214D01*
X001589Y012387D02*
X002771Y012387D01*
X002773Y012444D02*
X001587Y012444D01*
X001540Y012502D02*
X002820Y012502D01*
X002867Y012559D02*
X001493Y012559D01*
X001446Y012617D02*
X002914Y012617D01*
X002949Y012674D02*
X002586Y012674D01*
X002656Y012732D02*
X002892Y012732D01*
X002834Y012789D02*
X002727Y012789D01*
X002464Y012674D02*
X001896Y012674D01*
X001774Y012674D02*
X001411Y012674D01*
X001468Y012732D02*
X001704Y012732D01*
X001633Y012789D02*
X001526Y012789D01*
X002029Y012732D02*
X002331Y012732D01*
X002325Y012789D02*
X002035Y012789D01*
X002041Y012847D02*
X002319Y012847D01*
X002314Y012905D02*
X002046Y012905D01*
X002052Y012962D02*
X002308Y012962D01*
X002302Y013020D02*
X002058Y013020D01*
X001889Y012156D02*
X001203Y012156D01*
X001203Y012099D02*
X001876Y012099D01*
X001874Y012041D02*
X001203Y012041D01*
X001203Y011984D02*
X001884Y011984D01*
X001905Y011926D02*
X001359Y011926D01*
X001534Y011869D02*
X001943Y011869D01*
X002003Y011811D02*
X001552Y011811D01*
X001580Y011753D02*
X002052Y011753D01*
X002028Y011696D02*
X001600Y011696D01*
X001553Y011638D02*
X002005Y011638D01*
X001981Y011581D02*
X001506Y011581D01*
X001459Y011523D02*
X001957Y011523D01*
X001933Y011466D02*
X001865Y011466D01*
X001794Y011466D02*
X001412Y011466D01*
X001452Y011408D02*
X001723Y011408D01*
X001653Y011351D02*
X001510Y011351D01*
X001567Y011293D02*
X001582Y011293D01*
M02*
