G75*
%MOIN*%
%OFA0B0*%
%FSLAX24Y24*%
%IPPOS*%
%LPD*%
%AMOC8*
5,1,8,0,0,1.08239X$1,22.5*
%
%ADD10C,0.0000*%
%ADD11C,0.0554*%
%ADD12OC8,0.0554*%
%ADD13C,0.1900*%
%ADD14C,0.0600*%
%ADD15OC8,0.0520*%
%ADD16C,0.0413*%
%ADD17C,0.0160*%
%ADD18C,0.1502*%
D10*
X000480Y004962D02*
X000480Y017432D01*
X013272Y017432D01*
X013272Y004962D01*
X000480Y004962D01*
D11*
X004984Y006062D03*
X005884Y006062D03*
X005434Y007062D03*
X004984Y008062D03*
X005884Y008062D03*
X006334Y007062D03*
X006784Y008062D03*
X007234Y007062D03*
X007684Y008062D03*
X008134Y007062D03*
X007684Y006062D03*
X008584Y006062D03*
X009034Y007062D03*
X006784Y006062D03*
D12*
X008584Y008062D03*
D13*
X011800Y007062D03*
X001960Y007082D03*
D14*
X004080Y014062D02*
X004080Y014662D01*
X005080Y014662D02*
X005080Y014062D01*
X006080Y014062D02*
X006080Y014662D01*
X007080Y014662D02*
X007080Y014062D01*
X008080Y014062D02*
X008080Y014662D01*
X009080Y014662D02*
X009080Y014062D01*
X010080Y014062D02*
X010080Y014662D01*
D15*
X010780Y012362D03*
X011780Y012362D03*
X011780Y011162D03*
X010780Y011162D03*
X010780Y009962D03*
X011780Y009962D03*
D16*
X010180Y007062D03*
X007580Y011462D03*
X007980Y011962D03*
X008980Y011762D03*
X007380Y013262D03*
X006780Y012962D03*
X006780Y009062D03*
X003680Y009062D03*
X001680Y009962D03*
D17*
X001780Y010062D01*
X006080Y010062D01*
X006080Y012562D01*
X006480Y012962D01*
X006780Y012962D01*
X006468Y013282D02*
X006416Y013282D01*
X006299Y013233D01*
X005899Y012833D01*
X005809Y012743D01*
X005760Y012626D01*
X005760Y010382D01*
X001833Y010382D01*
X001769Y010409D01*
X001591Y010409D01*
X001427Y010341D01*
X001301Y010215D01*
X001233Y010051D01*
X001233Y009873D01*
X001301Y009709D01*
X001427Y009583D01*
X001591Y009515D01*
X001769Y009515D01*
X001933Y009583D01*
X002059Y009709D01*
X002072Y009742D01*
X006144Y009742D01*
X006261Y009791D01*
X006351Y009881D01*
X006400Y009998D01*
X006400Y012429D01*
X006546Y012575D01*
X006691Y012515D01*
X006869Y012515D01*
X007033Y012583D01*
X007159Y012709D01*
X007227Y012873D01*
X007227Y013051D01*
X007159Y013215D01*
X007033Y013341D01*
X006869Y013409D01*
X006691Y013409D01*
X006527Y013341D01*
X006468Y013282D01*
X006580Y013362D02*
X000720Y013362D01*
X000720Y013204D02*
X006269Y013204D01*
X006111Y013045D02*
X000720Y013045D01*
X000720Y012887D02*
X005952Y012887D01*
X005803Y012728D02*
X000720Y012728D01*
X000720Y012570D02*
X005760Y012570D01*
X005760Y012411D02*
X000720Y012411D01*
X000720Y012253D02*
X005760Y012253D01*
X005760Y012094D02*
X000720Y012094D01*
X000720Y011936D02*
X005760Y011936D01*
X005760Y011777D02*
X000720Y011777D01*
X000720Y011619D02*
X005760Y011619D01*
X005760Y011460D02*
X000720Y011460D01*
X000720Y011302D02*
X005760Y011302D01*
X005760Y011143D02*
X000720Y011143D01*
X000720Y010985D02*
X005760Y010985D01*
X005760Y010826D02*
X000720Y010826D01*
X000720Y010668D02*
X005760Y010668D01*
X005760Y010509D02*
X000720Y010509D01*
X000720Y010351D02*
X001452Y010351D01*
X001292Y010192D02*
X000720Y010192D01*
X000720Y010034D02*
X001233Y010034D01*
X001233Y009875D02*
X000720Y009875D01*
X000720Y009717D02*
X001298Y009717D01*
X001487Y009558D02*
X000720Y009558D01*
X000720Y009400D02*
X006460Y009400D01*
X006460Y009374D02*
X006401Y009315D01*
X006333Y009151D01*
X006333Y008973D01*
X006401Y008809D01*
X006527Y008683D01*
X006691Y008615D01*
X006869Y008615D01*
X006889Y008624D01*
X006845Y008579D01*
X006681Y008579D01*
X006491Y008500D01*
X006346Y008355D01*
X006334Y008327D01*
X006323Y008355D01*
X006177Y008500D01*
X005987Y008579D01*
X005781Y008579D01*
X005591Y008500D01*
X005446Y008355D01*
X005402Y008249D01*
X005375Y008301D01*
X005333Y008360D01*
X005282Y008411D01*
X005224Y008453D01*
X005160Y008486D01*
X005091Y008508D01*
X005020Y008519D01*
X004993Y008519D01*
X004993Y008070D01*
X004976Y008070D01*
X004976Y008053D01*
X004993Y008053D01*
X004993Y007605D01*
X005020Y007605D01*
X005091Y007616D01*
X005160Y007638D01*
X005224Y007671D01*
X005282Y007713D01*
X005333Y007764D01*
X005375Y007822D01*
X005402Y007875D01*
X005446Y007769D01*
X005591Y007623D01*
X005781Y007545D01*
X005987Y007545D01*
X006177Y007623D01*
X006323Y007769D01*
X006334Y007797D01*
X006346Y007769D01*
X006491Y007623D01*
X006681Y007545D01*
X006887Y007545D01*
X007077Y007623D01*
X007223Y007769D01*
X007234Y007797D01*
X007246Y007769D01*
X007391Y007623D01*
X007581Y007545D01*
X007787Y007545D01*
X007977Y007623D01*
X008123Y007769D01*
X008130Y007785D01*
X008370Y007545D01*
X008799Y007545D01*
X008996Y007742D01*
X010640Y007742D01*
X010662Y007736D01*
X010703Y007742D01*
X010704Y007742D01*
X010599Y007560D01*
X010511Y007232D01*
X010511Y006892D01*
X010599Y006564D01*
X010769Y006270D01*
X011009Y006030D01*
X011303Y005860D01*
X011631Y005772D01*
X011971Y005772D01*
X012299Y005860D01*
X012593Y006030D01*
X012834Y006270D01*
X013003Y006564D01*
X013032Y006671D01*
X013032Y005202D01*
X000720Y005202D01*
X000720Y006701D01*
X000757Y006564D01*
X000926Y006270D01*
X001167Y006030D01*
X001461Y005860D01*
X001789Y005772D01*
X002129Y005772D01*
X002457Y005860D01*
X002751Y006030D01*
X002991Y006270D01*
X003161Y006564D01*
X003249Y006892D01*
X003249Y007232D01*
X003161Y007560D01*
X002991Y007854D01*
X002751Y008094D01*
X002457Y008264D01*
X002129Y008352D01*
X001789Y008352D01*
X001461Y008264D01*
X001167Y008094D01*
X000926Y007854D01*
X000757Y007560D01*
X000720Y007423D01*
X000720Y015889D01*
X000840Y015600D01*
X001119Y015322D01*
X001483Y015171D01*
X001877Y015171D01*
X002241Y015322D01*
X002520Y015600D01*
X002671Y015965D01*
X002671Y016359D01*
X002520Y016723D01*
X002241Y017002D01*
X001877Y017153D01*
X001483Y017153D01*
X001119Y017002D01*
X000840Y016723D01*
X000720Y016434D01*
X000720Y017192D01*
X013032Y017192D01*
X013032Y016453D01*
X012920Y016723D01*
X012641Y017002D01*
X012277Y017153D01*
X011883Y017153D01*
X011519Y017002D01*
X011240Y016723D01*
X011089Y016359D01*
X011089Y015965D01*
X011240Y015600D01*
X011519Y015322D01*
X011883Y015171D01*
X012277Y015171D01*
X012641Y015322D01*
X012920Y015600D01*
X013032Y015870D01*
X013032Y007452D01*
X013003Y007560D01*
X012834Y007854D01*
X012593Y008094D01*
X012511Y008142D01*
X012644Y008142D01*
X012761Y008191D01*
X012851Y008281D01*
X012900Y008398D01*
X012900Y011452D01*
X012903Y011507D01*
X012900Y011516D01*
X012900Y011526D01*
X012879Y011576D01*
X012861Y011627D01*
X012855Y011634D01*
X012851Y011643D01*
X012813Y011682D01*
X012280Y012281D01*
X012280Y012569D01*
X011987Y012862D01*
X011768Y012862D01*
X011355Y013333D01*
X011351Y013343D01*
X011314Y013381D01*
X011279Y013421D01*
X011269Y013425D01*
X011261Y013433D01*
X011212Y013453D01*
X011165Y013477D01*
X011154Y013478D01*
X011144Y013482D01*
X011091Y013482D01*
X011038Y013485D01*
X011027Y013482D01*
X010013Y013482D01*
X009973Y013522D01*
X010187Y013522D01*
X010386Y013604D01*
X010538Y013756D01*
X010620Y013954D01*
X010620Y014769D01*
X010538Y014968D01*
X010386Y015120D01*
X010187Y015202D01*
X009973Y015202D01*
X009774Y015120D01*
X009622Y014968D01*
X009580Y014866D01*
X009538Y014968D01*
X009386Y015120D01*
X009187Y015202D01*
X008973Y015202D01*
X008774Y015120D01*
X008622Y014968D01*
X008580Y014866D01*
X008538Y014968D01*
X008386Y015120D01*
X008187Y015202D01*
X007973Y015202D01*
X007774Y015120D01*
X007622Y014968D01*
X007580Y014866D01*
X007538Y014968D01*
X007386Y015120D01*
X007187Y015202D01*
X006973Y015202D01*
X006774Y015120D01*
X006622Y014968D01*
X006580Y014866D01*
X006538Y014968D01*
X006386Y015120D01*
X006187Y015202D01*
X005973Y015202D01*
X005774Y015120D01*
X005622Y014968D01*
X005580Y014866D01*
X005538Y014968D01*
X005386Y015120D01*
X005187Y015202D01*
X004973Y015202D01*
X004774Y015120D01*
X004622Y014968D01*
X004545Y014783D01*
X004525Y014846D01*
X004491Y014913D01*
X004446Y014975D01*
X004393Y015028D01*
X004332Y015072D01*
X004264Y015107D01*
X004192Y015130D01*
X004118Y015142D01*
X004100Y015142D01*
X004100Y014382D01*
X004060Y014382D01*
X004060Y015142D01*
X004042Y015142D01*
X003968Y015130D01*
X003896Y015107D01*
X003828Y015072D01*
X003767Y015028D01*
X003714Y014975D01*
X003669Y014913D01*
X003635Y014846D01*
X003612Y014774D01*
X003600Y014700D01*
X003600Y014382D01*
X004060Y014382D01*
X004060Y014342D01*
X003600Y014342D01*
X003600Y014024D01*
X003612Y013949D01*
X003635Y013878D01*
X003669Y013810D01*
X003714Y013749D01*
X003767Y013696D01*
X003828Y013651D01*
X003896Y013617D01*
X003968Y013594D01*
X004042Y013582D01*
X004060Y013582D01*
X004060Y014342D01*
X004100Y014342D01*
X004100Y013582D01*
X004118Y013582D01*
X004192Y013594D01*
X004264Y013617D01*
X004332Y013651D01*
X004393Y013696D01*
X004446Y013749D01*
X004491Y013810D01*
X004525Y013878D01*
X004545Y013941D01*
X004622Y013756D01*
X004774Y013604D01*
X004973Y013522D01*
X005187Y013522D01*
X005386Y013604D01*
X005538Y013756D01*
X005580Y013858D01*
X005622Y013756D01*
X005774Y013604D01*
X005973Y013522D01*
X006187Y013522D01*
X006386Y013604D01*
X006538Y013756D01*
X006580Y013858D01*
X006622Y013756D01*
X006774Y013604D01*
X006973Y013522D01*
X007187Y013522D01*
X007325Y013579D01*
X009860Y011126D01*
X009860Y010498D01*
X009909Y010381D01*
X009999Y010291D01*
X010116Y010242D01*
X010438Y010242D01*
X010340Y010144D01*
X010340Y009962D01*
X010780Y009962D01*
X011220Y009962D01*
X011220Y010069D01*
X011280Y010009D01*
X011280Y009755D01*
X011460Y009575D01*
X011460Y009482D01*
X007816Y009482D01*
X007699Y009433D01*
X007609Y009343D01*
X007218Y008953D01*
X007227Y008973D01*
X007227Y009151D01*
X007159Y009315D01*
X007100Y009374D01*
X007100Y011029D01*
X007213Y011142D01*
X007268Y011142D01*
X007327Y011083D01*
X007491Y011015D01*
X007669Y011015D01*
X007833Y011083D01*
X007959Y011209D01*
X008027Y011373D01*
X008027Y011551D01*
X007959Y011715D01*
X007833Y011841D01*
X007669Y011909D01*
X007491Y011909D01*
X007327Y011841D01*
X007268Y011782D01*
X007016Y011782D01*
X006899Y011733D01*
X006599Y011433D01*
X006599Y011433D01*
X006509Y011343D01*
X006460Y011226D01*
X006460Y009374D01*
X006371Y009241D02*
X000720Y009241D01*
X000720Y009083D02*
X006333Y009083D01*
X006353Y008924D02*
X000720Y008924D01*
X000720Y008766D02*
X006444Y008766D01*
X006440Y008449D02*
X006229Y008449D01*
X006784Y008066D02*
X007880Y009162D01*
X011780Y009162D01*
X011780Y009962D01*
X011180Y010562D01*
X010180Y010562D01*
X010180Y011262D01*
X007080Y014262D01*
X007080Y014362D01*
X006614Y014947D02*
X006546Y014947D01*
X006400Y015106D02*
X006760Y015106D01*
X007400Y015106D02*
X007760Y015106D01*
X007614Y014947D02*
X007546Y014947D01*
X008080Y014362D02*
X008080Y014162D01*
X009880Y012362D01*
X010180Y012362D01*
X010780Y011762D01*
X011180Y011762D01*
X011780Y011162D01*
X012280Y010562D01*
X012280Y008762D01*
X008380Y008762D01*
X007684Y008066D01*
X007684Y008062D01*
X008010Y007656D02*
X008258Y007656D01*
X008241Y007508D02*
X008170Y007519D01*
X008143Y007519D01*
X008143Y007070D01*
X009026Y007070D01*
X009026Y007053D01*
X009043Y007053D01*
X009043Y006605D01*
X009070Y006605D01*
X009141Y006616D01*
X009210Y006638D01*
X009274Y006671D01*
X009332Y006713D01*
X009383Y006764D01*
X009425Y006822D01*
X009458Y006886D01*
X009480Y006955D01*
X009491Y007026D01*
X009491Y007053D01*
X009043Y007053D01*
X009043Y007070D01*
X009491Y007070D01*
X009491Y007098D01*
X009480Y007169D01*
X009458Y007237D01*
X009425Y007301D01*
X009383Y007360D01*
X009332Y007411D01*
X009274Y007453D01*
X009210Y007486D01*
X009141Y007508D01*
X009070Y007519D01*
X009043Y007519D01*
X009043Y007070D01*
X009026Y007070D01*
X009026Y007519D01*
X008998Y007519D01*
X008927Y007508D01*
X008859Y007486D01*
X008795Y007453D01*
X008737Y007411D01*
X008686Y007360D01*
X008643Y007301D01*
X008611Y007237D01*
X008588Y007169D01*
X008584Y007143D01*
X008580Y007169D01*
X008558Y007237D01*
X008525Y007301D01*
X008483Y007360D01*
X008432Y007411D01*
X008374Y007453D01*
X008310Y007486D01*
X008241Y007508D01*
X008272Y007498D02*
X008897Y007498D01*
X009026Y007498D02*
X009043Y007498D01*
X009172Y007498D02*
X010583Y007498D01*
X010540Y007339D02*
X009398Y007339D01*
X009476Y007181D02*
X010511Y007181D01*
X010511Y007022D02*
X009491Y007022D01*
X009447Y006864D02*
X010519Y006864D01*
X010561Y006705D02*
X009321Y006705D01*
X009043Y006705D02*
X009026Y006705D01*
X009026Y006605D02*
X008998Y006605D01*
X008927Y006616D01*
X008859Y006638D01*
X008795Y006671D01*
X008737Y006713D01*
X008686Y006764D01*
X008643Y006822D01*
X008611Y006886D01*
X008588Y006955D01*
X008584Y006981D01*
X008580Y006955D01*
X008558Y006886D01*
X008525Y006822D01*
X008483Y006764D01*
X008432Y006713D01*
X008374Y006671D01*
X008310Y006638D01*
X008241Y006616D01*
X008170Y006605D01*
X008143Y006605D01*
X008143Y007053D01*
X008126Y007053D01*
X008126Y006605D01*
X008098Y006605D01*
X008027Y006616D01*
X007959Y006638D01*
X007895Y006671D01*
X007837Y006713D01*
X007786Y006764D01*
X007743Y006822D01*
X007711Y006886D01*
X007688Y006955D01*
X007684Y006981D01*
X007680Y006955D01*
X007658Y006886D01*
X007625Y006822D01*
X007583Y006764D01*
X007532Y006713D01*
X007474Y006671D01*
X007410Y006638D01*
X007341Y006616D01*
X007270Y006605D01*
X007243Y006605D01*
X007243Y007053D01*
X007226Y007053D01*
X007226Y006605D01*
X007198Y006605D01*
X007127Y006616D01*
X007059Y006638D01*
X006995Y006671D01*
X006937Y006713D01*
X006886Y006764D01*
X006843Y006822D01*
X006817Y006875D01*
X006773Y006769D01*
X006627Y006623D01*
X006437Y006545D01*
X006231Y006545D01*
X006041Y006623D01*
X005896Y006769D01*
X005852Y006875D01*
X005825Y006822D01*
X005783Y006764D01*
X005732Y006713D01*
X005674Y006671D01*
X005610Y006638D01*
X005541Y006616D01*
X005470Y006605D01*
X005443Y006605D01*
X005443Y007053D01*
X005426Y007053D01*
X005426Y006605D01*
X005398Y006605D01*
X005327Y006616D01*
X005259Y006638D01*
X005195Y006671D01*
X005137Y006713D01*
X005086Y006764D01*
X005043Y006822D01*
X005011Y006886D01*
X004988Y006955D01*
X004977Y007026D01*
X004977Y007053D01*
X005426Y007053D01*
X005426Y007070D01*
X004977Y007070D01*
X004977Y007098D01*
X004988Y007169D01*
X005011Y007237D01*
X005043Y007301D01*
X005086Y007360D01*
X005137Y007411D01*
X005195Y007453D01*
X005259Y007486D01*
X005327Y007508D01*
X005398Y007519D01*
X005426Y007519D01*
X005426Y007070D01*
X005443Y007070D01*
X005443Y007519D01*
X005470Y007519D01*
X005541Y007508D01*
X005610Y007486D01*
X005674Y007453D01*
X005732Y007411D01*
X005783Y007360D01*
X005825Y007301D01*
X005852Y007249D01*
X005896Y007355D01*
X006041Y007500D01*
X006231Y007579D01*
X006437Y007579D01*
X006627Y007500D01*
X006773Y007355D01*
X006817Y007249D01*
X006843Y007301D01*
X006886Y007360D01*
X006937Y007411D01*
X006995Y007453D01*
X007059Y007486D01*
X007127Y007508D01*
X007198Y007519D01*
X007226Y007519D01*
X007226Y007070D01*
X007226Y007053D01*
X006851Y007053D01*
X006851Y007070D01*
X007226Y007070D01*
X007243Y007070D01*
X008126Y007070D01*
X008126Y007053D01*
X007677Y007053D01*
X007243Y007053D01*
X007243Y007070D01*
X007243Y007519D01*
X007270Y007519D01*
X007341Y007508D01*
X007410Y007486D01*
X007474Y007453D01*
X007532Y007411D01*
X007583Y007360D01*
X007625Y007301D01*
X007658Y007237D01*
X007680Y007169D01*
X007684Y007143D01*
X007688Y007169D01*
X007711Y007237D01*
X007743Y007301D01*
X007786Y007360D01*
X007837Y007411D01*
X007895Y007453D01*
X007959Y007486D01*
X008027Y007508D01*
X008098Y007519D01*
X008126Y007519D01*
X008126Y007070D01*
X008143Y007070D01*
X008143Y007053D01*
X008577Y007053D01*
X009026Y007053D01*
X009026Y006605D01*
X008877Y006500D02*
X009023Y006355D01*
X009101Y006165D01*
X009101Y005959D01*
X009023Y005769D01*
X008877Y005623D01*
X008687Y005545D01*
X008481Y005545D01*
X008291Y005623D01*
X008146Y005769D01*
X008134Y005797D01*
X008123Y005769D01*
X007977Y005623D01*
X007787Y005545D01*
X007581Y005545D01*
X007391Y005623D01*
X007246Y005769D01*
X007234Y005797D01*
X007223Y005769D01*
X007077Y005623D01*
X006887Y005545D01*
X006681Y005545D01*
X006491Y005623D01*
X006346Y005769D01*
X006334Y005797D01*
X006323Y005769D01*
X006177Y005623D01*
X005987Y005545D01*
X005781Y005545D01*
X005591Y005623D01*
X005446Y005769D01*
X005434Y005797D01*
X005423Y005769D01*
X005277Y005623D01*
X005087Y005545D01*
X004881Y005545D01*
X004691Y005623D01*
X004546Y005769D01*
X004467Y005959D01*
X004467Y006165D01*
X004546Y006355D01*
X004691Y006500D01*
X004881Y006579D01*
X005087Y006579D01*
X005277Y006500D01*
X005423Y006355D01*
X005434Y006327D01*
X005446Y006355D01*
X005591Y006500D01*
X005781Y006579D01*
X005987Y006579D01*
X006177Y006500D01*
X006323Y006355D01*
X006334Y006327D01*
X006346Y006355D01*
X006491Y006500D01*
X006681Y006579D01*
X006887Y006579D01*
X007077Y006500D01*
X007223Y006355D01*
X007234Y006327D01*
X007246Y006355D01*
X007391Y006500D01*
X007581Y006579D01*
X007787Y006579D01*
X007977Y006500D01*
X008123Y006355D01*
X008134Y006327D01*
X008146Y006355D01*
X008291Y006500D01*
X008481Y006579D01*
X008687Y006579D01*
X008877Y006500D01*
X008765Y006547D02*
X010609Y006547D01*
X010701Y006388D02*
X008989Y006388D01*
X009075Y006230D02*
X010809Y006230D01*
X010967Y006071D02*
X009101Y006071D01*
X009082Y005913D02*
X011211Y005913D01*
X010180Y007062D02*
X009034Y007062D01*
X008134Y007062D01*
X007234Y007062D01*
X007080Y007062D01*
X006580Y007562D01*
X005934Y007562D01*
X005434Y007062D01*
X004984Y007512D01*
X004984Y008062D01*
X004280Y008062D01*
X004080Y008262D01*
X004080Y008662D01*
X003680Y009062D01*
X004593Y008301D02*
X004561Y008237D01*
X004538Y008169D01*
X004527Y008098D01*
X004527Y008070D01*
X004976Y008070D01*
X004976Y008519D01*
X004948Y008519D01*
X004877Y008508D01*
X004809Y008486D01*
X004745Y008453D01*
X004687Y008411D01*
X004636Y008360D01*
X004593Y008301D01*
X004588Y008290D02*
X002358Y008290D01*
X002685Y008132D02*
X004533Y008132D01*
X004527Y008053D02*
X004527Y008026D01*
X004538Y007955D01*
X004561Y007886D01*
X004593Y007822D01*
X004636Y007764D01*
X004687Y007713D01*
X004745Y007671D01*
X004809Y007638D01*
X004877Y007616D01*
X004948Y007605D01*
X004976Y007605D01*
X004976Y008053D01*
X004527Y008053D01*
X004535Y007973D02*
X002872Y007973D01*
X003014Y007815D02*
X004599Y007815D01*
X004773Y007656D02*
X003105Y007656D01*
X003177Y007498D02*
X005297Y007498D01*
X005426Y007498D02*
X005443Y007498D01*
X005572Y007498D02*
X006039Y007498D01*
X005890Y007339D02*
X005798Y007339D01*
X005558Y007656D02*
X005195Y007656D01*
X004993Y007656D02*
X004976Y007656D01*
X004976Y007815D02*
X004993Y007815D01*
X004976Y007973D02*
X004993Y007973D01*
X004976Y008132D02*
X004993Y008132D01*
X004976Y008290D02*
X004993Y008290D01*
X004976Y008449D02*
X004993Y008449D01*
X005229Y008449D02*
X005540Y008449D01*
X005419Y008290D02*
X005381Y008290D01*
X005370Y007815D02*
X005427Y007815D01*
X005426Y007339D02*
X005443Y007339D01*
X005426Y007181D02*
X005443Y007181D01*
X005426Y007022D02*
X005443Y007022D01*
X005426Y006864D02*
X005443Y006864D01*
X005426Y006705D02*
X005443Y006705D01*
X005721Y006705D02*
X005959Y006705D01*
X005857Y006864D02*
X005847Y006864D01*
X005704Y006547D02*
X005165Y006547D01*
X005147Y006705D02*
X003199Y006705D01*
X003241Y006864D02*
X005022Y006864D01*
X004978Y007022D02*
X003249Y007022D01*
X003249Y007181D02*
X004992Y007181D01*
X005071Y007339D02*
X003220Y007339D01*
X003151Y006547D02*
X004804Y006547D01*
X004579Y006388D02*
X003059Y006388D01*
X002951Y006230D02*
X004494Y006230D01*
X004467Y006071D02*
X002793Y006071D01*
X002549Y005913D02*
X004486Y005913D01*
X004560Y005754D02*
X000720Y005754D01*
X000720Y005596D02*
X004758Y005596D01*
X005211Y005596D02*
X005658Y005596D01*
X005460Y005754D02*
X005408Y005754D01*
X005389Y006388D02*
X005479Y006388D01*
X006065Y006547D02*
X006226Y006547D01*
X006289Y006388D02*
X006379Y006388D01*
X006442Y006547D02*
X006604Y006547D01*
X006709Y006705D02*
X006947Y006705D01*
X006965Y006547D02*
X007504Y006547D01*
X007521Y006705D02*
X007847Y006705D01*
X007865Y006547D02*
X008404Y006547D01*
X008421Y006705D02*
X008747Y006705D01*
X008622Y006864D02*
X008547Y006864D01*
X008576Y007181D02*
X008592Y007181D01*
X008671Y007339D02*
X008498Y007339D01*
X008143Y007339D02*
X008126Y007339D01*
X008126Y007181D02*
X008143Y007181D01*
X008126Y007022D02*
X008143Y007022D01*
X008126Y006864D02*
X008143Y006864D01*
X008126Y006705D02*
X008143Y006705D01*
X008179Y006388D02*
X008089Y006388D01*
X007722Y006864D02*
X007647Y006864D01*
X007676Y007181D02*
X007692Y007181D01*
X007771Y007339D02*
X007598Y007339D01*
X007372Y007498D02*
X007997Y007498D01*
X008126Y007498D02*
X008143Y007498D01*
X008584Y008062D02*
X010680Y008062D01*
X010980Y008462D01*
X012580Y008462D01*
X012580Y011462D01*
X011780Y012362D01*
X011080Y013162D01*
X009880Y013162D01*
X009080Y013962D01*
X009080Y014362D01*
X009546Y014947D02*
X009614Y014947D01*
X009760Y015106D02*
X009400Y015106D01*
X008760Y015106D02*
X008400Y015106D01*
X008546Y014947D02*
X008614Y014947D01*
X007386Y013521D02*
X000720Y013521D01*
X000720Y013679D02*
X003790Y013679D01*
X003655Y013838D02*
X000720Y013838D01*
X000720Y013996D02*
X003604Y013996D01*
X003600Y014155D02*
X000720Y014155D01*
X000720Y014313D02*
X003600Y014313D01*
X003600Y014472D02*
X000720Y014472D01*
X000720Y014630D02*
X003600Y014630D01*
X003617Y014789D02*
X000720Y014789D01*
X000720Y014947D02*
X003694Y014947D01*
X003894Y015106D02*
X000720Y015106D01*
X000720Y015264D02*
X001257Y015264D01*
X001017Y015423D02*
X000720Y015423D01*
X000720Y015581D02*
X000859Y015581D01*
X000782Y015740D02*
X000720Y015740D01*
X000720Y016532D02*
X000761Y016532D01*
X000720Y016691D02*
X000826Y016691D01*
X000720Y016849D02*
X000966Y016849D01*
X001132Y017008D02*
X000720Y017008D01*
X000720Y017166D02*
X013032Y017166D01*
X013032Y017008D02*
X012628Y017008D01*
X012794Y016849D02*
X013032Y016849D01*
X013032Y016691D02*
X012934Y016691D01*
X012999Y016532D02*
X013032Y016532D01*
X013032Y015740D02*
X012978Y015740D01*
X013032Y015581D02*
X012901Y015581D01*
X013032Y015423D02*
X012743Y015423D01*
X012503Y015264D02*
X013032Y015264D01*
X013032Y015106D02*
X010400Y015106D01*
X010546Y014947D02*
X013032Y014947D01*
X013032Y014789D02*
X010612Y014789D01*
X010620Y014630D02*
X013032Y014630D01*
X013032Y014472D02*
X010620Y014472D01*
X010620Y014313D02*
X013032Y014313D01*
X013032Y014155D02*
X010620Y014155D01*
X010620Y013996D02*
X013032Y013996D01*
X013032Y013838D02*
X010572Y013838D01*
X010461Y013679D02*
X013032Y013679D01*
X013032Y013521D02*
X009974Y013521D01*
X009973Y013522D02*
X009973Y013522D01*
X009853Y012842D02*
X010013Y012682D01*
X010244Y012682D01*
X010361Y012633D01*
X010395Y012599D01*
X010598Y012802D01*
X010780Y012802D01*
X010780Y012362D01*
X010780Y012362D01*
X010780Y012802D01*
X010962Y012802D01*
X011023Y012742D01*
X010935Y012842D01*
X009853Y012842D01*
X009966Y012728D02*
X010524Y012728D01*
X010780Y012728D02*
X010780Y012728D01*
X010780Y012570D02*
X010780Y012570D01*
X010780Y012411D02*
X010780Y012411D01*
X010780Y012362D02*
X011220Y012362D01*
X011220Y012516D01*
X011280Y012447D01*
X011280Y012155D01*
X011573Y011862D01*
X011796Y011862D01*
X011974Y011662D01*
X011733Y011662D01*
X011361Y012033D01*
X011244Y012082D01*
X011122Y012082D01*
X011220Y012180D01*
X011220Y012362D01*
X010780Y012362D01*
X010780Y012362D01*
X011135Y012094D02*
X011340Y012094D01*
X011280Y012253D02*
X011220Y012253D01*
X011220Y012411D02*
X011280Y012411D01*
X011459Y011936D02*
X011499Y011936D01*
X011617Y011777D02*
X011871Y011777D01*
X012305Y012253D02*
X013032Y012253D01*
X013032Y012411D02*
X012280Y012411D01*
X012279Y012570D02*
X013032Y012570D01*
X013032Y012728D02*
X012121Y012728D01*
X011746Y012887D02*
X013032Y012887D01*
X013032Y013045D02*
X011607Y013045D01*
X011468Y013204D02*
X013032Y013204D01*
X013032Y013362D02*
X011332Y013362D01*
X012446Y012094D02*
X013032Y012094D01*
X013032Y011936D02*
X012587Y011936D01*
X012728Y011777D02*
X013032Y011777D01*
X013032Y011619D02*
X012864Y011619D01*
X012900Y011460D02*
X013032Y011460D01*
X013032Y011302D02*
X012900Y011302D01*
X012900Y011143D02*
X013032Y011143D01*
X013032Y010985D02*
X012900Y010985D01*
X012900Y010826D02*
X013032Y010826D01*
X013032Y010668D02*
X012900Y010668D01*
X012900Y010509D02*
X013032Y010509D01*
X013032Y010351D02*
X012900Y010351D01*
X012900Y010192D02*
X013032Y010192D01*
X013032Y010034D02*
X012900Y010034D01*
X012900Y009875D02*
X013032Y009875D01*
X013032Y009717D02*
X012900Y009717D01*
X012900Y009558D02*
X013032Y009558D01*
X013032Y009400D02*
X012900Y009400D01*
X012900Y009241D02*
X013032Y009241D01*
X013032Y009083D02*
X012900Y009083D01*
X012900Y008924D02*
X013032Y008924D01*
X013032Y008766D02*
X012900Y008766D01*
X012900Y008607D02*
X013032Y008607D01*
X013032Y008449D02*
X012900Y008449D01*
X012855Y008290D02*
X013032Y008290D01*
X013032Y008132D02*
X012528Y008132D01*
X012714Y007973D02*
X013032Y007973D01*
X013032Y007815D02*
X012856Y007815D01*
X012948Y007656D02*
X013032Y007656D01*
X013020Y007498D02*
X013032Y007498D01*
X012993Y006547D02*
X013032Y006547D01*
X013032Y006388D02*
X012902Y006388D01*
X012794Y006230D02*
X013032Y006230D01*
X013032Y006071D02*
X012635Y006071D01*
X012391Y005913D02*
X013032Y005913D01*
X013032Y005754D02*
X009008Y005754D01*
X008811Y005596D02*
X013032Y005596D01*
X013032Y005437D02*
X000720Y005437D01*
X000720Y005279D02*
X013032Y005279D01*
X010655Y007656D02*
X008910Y007656D01*
X009026Y007339D02*
X009043Y007339D01*
X009026Y007181D02*
X009043Y007181D01*
X009026Y007022D02*
X009043Y007022D01*
X009026Y006864D02*
X009043Y006864D01*
X008160Y005754D02*
X008108Y005754D01*
X007911Y005596D02*
X008358Y005596D01*
X007458Y005596D02*
X007011Y005596D01*
X007208Y005754D02*
X007260Y005754D01*
X007279Y006388D02*
X007189Y006388D01*
X007226Y006705D02*
X007243Y006705D01*
X007226Y006864D02*
X007243Y006864D01*
X007226Y007022D02*
X007243Y007022D01*
X007226Y007181D02*
X007243Y007181D01*
X007226Y007339D02*
X007243Y007339D01*
X007226Y007498D02*
X007243Y007498D01*
X007097Y007498D02*
X006630Y007498D01*
X006779Y007339D02*
X006871Y007339D01*
X007110Y007656D02*
X007358Y007656D01*
X006784Y008062D02*
X006784Y008066D01*
X006458Y007656D02*
X006210Y007656D01*
X006812Y006864D02*
X006822Y006864D01*
X006360Y005754D02*
X006308Y005754D01*
X006111Y005596D02*
X006558Y005596D01*
X004739Y008449D02*
X000720Y008449D01*
X000720Y008607D02*
X006873Y008607D01*
X006780Y009062D02*
X006780Y011162D01*
X007080Y011462D01*
X007580Y011462D01*
X007896Y011777D02*
X009187Y011777D01*
X009351Y011619D02*
X007998Y011619D01*
X008027Y011460D02*
X009515Y011460D01*
X009679Y011302D02*
X007997Y011302D01*
X007893Y011143D02*
X009842Y011143D01*
X009860Y010985D02*
X007100Y010985D01*
X007100Y010826D02*
X009860Y010826D01*
X009860Y010668D02*
X007100Y010668D01*
X007100Y010509D02*
X009860Y010509D01*
X009938Y010351D02*
X007100Y010351D01*
X007100Y010192D02*
X010388Y010192D01*
X010340Y010034D02*
X007100Y010034D01*
X007100Y009875D02*
X010340Y009875D01*
X010340Y009962D02*
X010340Y009780D01*
X010598Y009522D01*
X010780Y009522D01*
X010962Y009522D01*
X011220Y009780D01*
X011220Y009962D01*
X010780Y009962D01*
X010780Y009962D01*
X010780Y009962D01*
X010340Y009962D01*
X010403Y009717D02*
X007100Y009717D01*
X007100Y009558D02*
X010561Y009558D01*
X010780Y009558D02*
X010780Y009558D01*
X010780Y009522D02*
X010780Y009962D01*
X010780Y009962D01*
X010780Y009522D01*
X010999Y009558D02*
X011460Y009558D01*
X011318Y009717D02*
X011157Y009717D01*
X011220Y009875D02*
X011280Y009875D01*
X011255Y010034D02*
X011220Y010034D01*
X010780Y009875D02*
X010780Y009875D01*
X010780Y009717D02*
X010780Y009717D01*
X011527Y010668D02*
X011567Y010668D01*
X011573Y010662D02*
X011780Y010662D01*
X011947Y010462D01*
X011733Y010462D01*
X011361Y010833D01*
X011244Y010882D01*
X011122Y010882D01*
X011220Y010980D01*
X011220Y011162D01*
X011220Y011269D01*
X011280Y011209D01*
X011280Y010955D01*
X011573Y010662D01*
X011685Y010509D02*
X011907Y010509D01*
X011408Y010826D02*
X011368Y010826D01*
X011280Y010985D02*
X011220Y010985D01*
X011220Y011143D02*
X011280Y011143D01*
X011220Y011162D02*
X010780Y011162D01*
X011220Y011162D01*
X010780Y011162D02*
X010780Y011162D01*
X009023Y011936D02*
X006400Y011936D01*
X006400Y012094D02*
X008860Y012094D01*
X008696Y012253D02*
X006400Y012253D01*
X006400Y012411D02*
X008532Y012411D01*
X008368Y012570D02*
X007001Y012570D01*
X007167Y012728D02*
X008204Y012728D01*
X008041Y012887D02*
X007227Y012887D01*
X007227Y013045D02*
X007877Y013045D01*
X007713Y013204D02*
X007163Y013204D01*
X006980Y013362D02*
X007549Y013362D01*
X007280Y013462D02*
X004080Y013462D01*
X004080Y014362D01*
X004060Y014313D02*
X004100Y014313D01*
X004100Y014155D02*
X004060Y014155D01*
X004060Y013996D02*
X004100Y013996D01*
X004100Y013838D02*
X004060Y013838D01*
X004060Y013679D02*
X004100Y013679D01*
X004370Y013679D02*
X004699Y013679D01*
X004588Y013838D02*
X004505Y013838D01*
X004100Y014472D02*
X004060Y014472D01*
X004060Y014630D02*
X004100Y014630D01*
X004100Y014789D02*
X004060Y014789D01*
X004060Y014947D02*
X004100Y014947D01*
X004100Y015106D02*
X004060Y015106D01*
X004266Y015106D02*
X004760Y015106D01*
X004614Y014947D02*
X004466Y014947D01*
X004543Y014789D02*
X004548Y014789D01*
X005400Y015106D02*
X005760Y015106D01*
X005614Y014947D02*
X005546Y014947D01*
X005572Y013838D02*
X005588Y013838D01*
X005699Y013679D02*
X005461Y013679D01*
X006461Y013679D02*
X006699Y013679D01*
X006588Y013838D02*
X006572Y013838D01*
X007280Y013462D02*
X008980Y011762D01*
X007665Y009400D02*
X007100Y009400D01*
X007189Y009241D02*
X007507Y009241D01*
X007609Y009343D02*
X007609Y009343D01*
X007348Y009083D02*
X007227Y009083D01*
X006460Y009558D02*
X001873Y009558D01*
X002062Y009717D02*
X006460Y009717D01*
X006460Y009875D02*
X006346Y009875D01*
X006400Y010034D02*
X006460Y010034D01*
X006460Y010192D02*
X006400Y010192D01*
X006400Y010351D02*
X006460Y010351D01*
X006460Y010509D02*
X006400Y010509D01*
X006400Y010668D02*
X006460Y010668D01*
X006460Y010826D02*
X006400Y010826D01*
X006400Y010985D02*
X006460Y010985D01*
X006460Y011143D02*
X006400Y011143D01*
X006400Y011302D02*
X006492Y011302D01*
X006400Y011460D02*
X006626Y011460D01*
X006784Y011619D02*
X006400Y011619D01*
X006400Y011777D02*
X007006Y011777D01*
X006559Y012570D02*
X006541Y012570D01*
X002578Y015740D02*
X011182Y015740D01*
X011116Y015898D02*
X002644Y015898D01*
X002671Y016057D02*
X011089Y016057D01*
X011089Y016215D02*
X002671Y016215D01*
X002665Y016374D02*
X011095Y016374D01*
X011161Y016532D02*
X002599Y016532D01*
X002534Y016691D02*
X011226Y016691D01*
X011366Y016849D02*
X002394Y016849D01*
X002228Y017008D02*
X011532Y017008D01*
X011259Y015581D02*
X002501Y015581D01*
X002343Y015423D02*
X011417Y015423D01*
X011657Y015264D02*
X002103Y015264D01*
X001559Y008290D02*
X000720Y008290D01*
X000720Y008132D02*
X001232Y008132D01*
X001046Y007973D02*
X000720Y007973D01*
X000720Y007815D02*
X000904Y007815D01*
X000812Y007656D02*
X000720Y007656D01*
X000720Y007498D02*
X000740Y007498D01*
X000720Y006547D02*
X000767Y006547D01*
X000720Y006388D02*
X000858Y006388D01*
X000966Y006230D02*
X000720Y006230D01*
X000720Y006071D02*
X001125Y006071D01*
X001369Y005913D02*
X000720Y005913D01*
D18*
X001680Y016162D03*
X012080Y016162D03*
M02*
