G75*
%MOIN*%
%OFA0B0*%
%FSLAX24Y24*%
%IPPOS*%
%LPD*%
%AMOC8*
5,1,8,0,0,1.08239X$1,22.5*
%
%ADD10C,0.0000*%
%ADD11C,0.0594*%
%ADD12OC8,0.0594*%
%ADD13C,0.1940*%
%ADD14C,0.0640*%
%ADD15OC8,0.0560*%
%ADD16C,0.1542*%
D10*
X000480Y004962D02*
X000480Y017432D01*
X013272Y017432D01*
X013272Y004962D01*
X000480Y004962D01*
D11*
X004984Y006062D03*
X005884Y006062D03*
X005434Y007062D03*
X004984Y008062D03*
X005884Y008062D03*
X006334Y007062D03*
X006784Y008062D03*
X007234Y007062D03*
X007684Y008062D03*
X008134Y007062D03*
X007684Y006062D03*
X008584Y006062D03*
X009034Y007062D03*
X006784Y006062D03*
D12*
X008584Y008062D03*
D13*
X011800Y007062D03*
X001960Y007082D03*
D14*
X004080Y014062D02*
X004080Y014662D01*
X005080Y014662D02*
X005080Y014062D01*
X006080Y014062D02*
X006080Y014662D01*
X007080Y014662D02*
X007080Y014062D01*
X008080Y014062D02*
X008080Y014662D01*
X009080Y014662D02*
X009080Y014062D01*
X010080Y014062D02*
X010080Y014662D01*
D15*
X010780Y012362D03*
X011780Y012362D03*
X011780Y011162D03*
X010780Y011162D03*
X010780Y009962D03*
X011780Y009962D03*
D16*
X012080Y016162D03*
X001680Y016162D03*
M02*
